<?xml version="1.0" standalone="no"?>
<!DOCTYPE svg PUBLIC "-//W3C//DTD SVG 20010904//EN"
 "http://www.w3.org/TR/2001/REC-SVG-20010904/DTD/svg10.dtd">
<svg version="1.0" xmlns="http://www.w3.org/2000/svg"
 width="1200.000000pt" height="1634.000000pt" viewBox="0 0 1200.000000 1634.000000"
 preserveAspectRatio="xMidYMid meet">

<g transform="translate(0.000000,1634.000000) scale(0.100000,-0.100000)"
fill="#000000" stroke="none">
<path d="M5581 16258 c7 -13 41 -74 76 -137 35 -63 62 -116 59 -118 -2 -2 -61
30 -131 72 -70 41 -129 74 -132 72 -2 -2 -2 -191 -1 -420 l3 -416 128 75 c71
42 130 74 132 72 2 -2 -30 -64 -71 -137 -41 -74 -73 -136 -71 -138 2 -2 195
-2 429 -1 l426 3 -37 65 c-20 36 -57 101 -81 144 l-43 80 34 -21 c86 -52 241
-143 245 -143 2 0 4 189 4 420 0 231 -2 420 -5 420 -5 0 -207 -119 -254 -149
-24 -15 -24 -15 -11 9 16 30 93 169 126 228 l25 42 -431 0 -431 0 12 -22z
m709 -62 c0 -2 -50 -93 -111 -201 -60 -109 -108 -199 -106 -201 2 -3 91 47
198 111 l194 115 3 -145 c1 -80 1 -210 0 -289 l-3 -144 -194 114 c-107 62
-196 112 -199 110 -2 -2 47 -93 107 -201 61 -109 111 -199 111 -201 0 -2 -133
-4 -295 -4 -162 0 -295 2 -295 5 0 3 50 94 110 202 61 108 109 198 107 199 -2
2 -91 -48 -198 -110 l-194 -114 -3 144 c-1 79 -1 209 0 289 l3 145 194 -115
c107 -64 195 -114 197 -112 2 2 -37 77 -87 168 -50 90 -100 181 -110 202 l-19
37 295 0 c162 0 295 -2 295 -4z"/>
<path d="M5567 15103 c-2 -5 63 -366 145 -803 81 -437 147 -801 145 -808 -1
-8 -35 114 -76 270 -56 216 -199 731 -267 961 -4 14 -17 17 -79 17 -160 0
-375 -33 -505 -78 -196 -68 -355 -199 -440 -363 -57 -111 -88 -241 -101 -427
-32 -457 79 -777 425 -1226 75 -97 76 -100 76 -157 0 -57 -1 -58 -22 -50 -13
5 -207 84 -433 176 -225 92 -434 176 -464 186 -71 25 -134 24 -188 -2 -72 -35
-159 -150 -177 -235 l-7 -31 -147 -6 c-231 -8 -371 -57 -485 -169 -99 -98
-133 -202 -124 -380 4 -92 9 -116 36 -173 17 -36 40 -79 51 -96 12 -16 17 -29
11 -29 -40 0 -432 155 -580 229 -55 28 -101 48 -101 44 1 -20 103 -199 146
-255 204 -268 542 -431 940 -454 l110 -7 -4 -131 c-5 -157 14 -250 79 -386
l40 -85 44 101 c90 210 183 317 307 355 60 19 87 21 182 17 139 -7 249 -41
352 -110 64 -43 74 -54 101 -115 78 -174 133 -404 133 -554 0 -173 -45 -354
-121 -482 -109 -183 -321 -336 -526 -378 -35 -7 -63 -16 -63 -20 0 -28 133
-103 248 -140 59 -19 69 -25 55 -33 -10 -6 -53 -10 -95 -10 -71 0 -85 4 -164
44 -67 32 -105 60 -164 119 -140 138 -199 246 -241 437 -54 250 -91 327 -208
444 -161 159 -338 220 -606 207 -86 -4 -131 -12 -207 -36 -448 -145 -966 -469
-1278 -798 -171 -180 -297 -381 -354 -561 -40 -129 -33 -173 32 -188 15 -4 30
-8 34 -10 3 -2 -38 -91 -92 -197 -199 -388 -304 -687 -356 -1017 -12 -73 -27
-125 -49 -170 -287 -578 -447 -1190 -505 -1935 -17 -214 -33 -867 -26 -1055
20 -515 109 -1029 281 -1620 51 -174 216 -674 249 -750 14 -34 14 -35 20 -10
4 14 58 268 121 565 63 297 118 551 121 565 5 20 34 -30 159 -280 l153 -305
10 40 c6 22 61 282 124 577 62 295 116 534 119 530 4 -4 56 -104 117 -222 63
-121 113 -208 116 -200 3 8 17 62 31 120 35 144 30 135 67 107 18 -14 53 -35
78 -47 25 -12 46 -24 48 -25 1 -1 -4 -40 -12 -87 -16 -92 -11 -135 23 -193
l20 -35 -24 -52 c-35 -75 -33 -103 13 -147 20 -20 46 -41 56 -46 17 -10 17
-13 4 -45 -41 -97 -30 -159 35 -214 68 -58 71 -61 89 -94 9 -16 27 -37 40 -46
30 -20 133 -36 231 -36 73 0 77 -1 77 -22 0 -37 37 -199 60 -268 42 -125 120
-201 294 -286 126 -62 144 -64 227 -24 37 19 71 41 75 49 4 9 9 81 11 161 6
166 -10 260 -53 319 -15 20 -74 82 -131 137 l-105 101 17 77 c18 78 17 89 -12
256 -3 21 6 33 55 72 123 99 281 180 415 214 69 18 176 10 492 -37 318 -47
286 -46 330 -8 43 38 74 99 75 144 0 17 -20 99 -45 184 -40 136 -45 166 -45
252 0 76 5 111 21 155 58 154 220 233 476 234 96 0 131 -5 250 -36 264 -68
401 -41 520 105 31 38 43 48 38 31 -15 -48 -75 -159 -131 -242 -213 -312 -492
-551 -673 -575 -59 -8 -92 -33 -266 -203 -168 -165 -240 -224 -320 -261 -98
-47 -180 -38 -296 33 -25 15 -49 28 -52 28 -13 0 -49 -84 -68 -158 -13 -47
-21 -114 -22 -172 -2 -89 0 -100 31 -162 38 -79 116 -155 224 -220 l73 -44 1
-145 c2 -161 13 -243 49 -357 49 -156 155 -289 283 -355 85 -44 127 -57 225
-71 l78 -11 47 -110 c134 -308 305 -506 537 -622 112 -57 215 -88 387 -117 32
-6 45 -19 115 -114 93 -126 260 -318 361 -415 l72 -69 29 21 c68 48 293 304
422 478 60 81 73 93 106 99 190 32 320 75 438 144 218 129 379 334 512 657 20
49 25 53 55 53 63 1 173 30 248 66 107 53 203 151 258 264 67 135 84 216 89
425 l5 181 57 31 c131 74 225 171 257 267 25 74 15 236 -21 343 -42 124 -35
121 -138 68 -74 -38 -97 -45 -145 -45 -111 0 -198 56 -412 265 -204 198 -232
221 -295 229 -185 23 -477 279 -689 604 -88 134 -161 297 -88 196 64 -88 141
-136 247 -152 74 -12 146 -3 298 37 99 26 137 31 230 31 244 -1 396 -69 464
-208 26 -53 28 -65 28 -182 -1 -116 -3 -134 -40 -250 -21 -69 -40 -146 -43
-171 -5 -57 21 -112 74 -159 43 -37 11 -38 329 9 110 16 254 35 321 41 140 13
112 20 489 -120 305 -115 554 -196 658 -215 82 -15 95 -15 168 0 103 21 235
67 330 116 119 62 232 186 284 314 11 27 30 64 43 82 13 18 40 68 60 112 l38
80 109 -515 c60 -283 111 -514 114 -514 3 0 74 132 156 294 83 162 151 293
152 292 1 -1 56 -258 123 -571 66 -314 123 -577 126 -585 6 -17 40 72 148 395
207 615 330 1163 381 1694 18 194 21 795 5 1131 -39 824 -178 1427 -479 2079
-59 128 -74 170 -86 250 -55 345 -205 758 -404 1110 -28 50 -51 95 -51 101 0
5 11 10 24 10 13 0 36 10 51 22 25 19 27 25 21 69 -17 130 -110 326 -229 485
-290 388 -857 779 -1401 967 l-121 41 -160 0 c-191 1 -249 -10 -370 -69 -203
-100 -321 -252 -375 -485 -12 -52 -31 -130 -41 -174 -22 -93 -68 -179 -151
-281 -76 -96 -153 -158 -247 -203 -66 -32 -84 -36 -157 -36 -107 -1 -125 14
-47 38 112 35 263 118 263 144 0 4 -26 13 -57 20 -80 17 -207 70 -278 117 -83
54 -215 188 -257 260 -83 144 -118 280 -118 463 0 183 46 386 128 565 30 67
43 84 90 117 113 81 276 125 436 118 80 -3 102 -8 159 -36 107 -53 191 -163
268 -355 19 -47 35 -75 41 -69 22 22 88 197 104 273 13 64 15 112 11 200 l-6
116 107 6 c260 15 510 94 697 220 79 53 195 166 255 247 43 59 140 227 140
243 0 4 -39 -13 -87 -37 -155 -77 -578 -245 -589 -233 -2 2 7 31 20 63 83 204
71 434 -30 581 -85 124 -240 181 -537 199 l-115 7 -16 41 c-32 83 -163 209
-243 234 -49 15 -83 3 -592 -203 -238 -96 -434 -175 -437 -175 -2 0 -4 27 -4
60 0 60 1 62 74 158 228 299 361 573 400 822 22 140 31 398 17 505 -25 189
-81 333 -176 447 -163 198 -456 310 -819 312 l-118 1 -92 -320 c-51 -176 -128
-454 -172 -618 -43 -165 -80 -295 -82 -289 -1 5 63 360 143 789 80 429 145
787 145 796 0 16 -35 17 -424 17 -234 0 -427 -3 -429 -7z m631 -135 c16 -24
32 -48 35 -54 4 -7 -18 -28 -56 -53 l-63 -41 -119 0 -119 0 -63 41 c-35 23
-63 43 -63 45 0 2 16 26 36 54 l36 50 173 0 174 0 29 -42z m-409 -204 c2 -2
-14 -27 -35 -56 l-39 -52 -12 69 c-19 112 -20 111 35 74 26 -18 49 -34 51 -35z
m500 -18 c-7 -42 -16 -76 -19 -76 -4 0 -22 21 -40 46 -26 37 -30 48 -19 55 8
4 30 19 49 32 19 14 36 24 38 22 2 -2 -2 -37 -9 -79z m-218 -46 c45 0 48 -2
90 -56 l43 -57 -39 -33 -40 -34 -130 0 -130 0 -40 34 -39 33 43 56 c42 55 44
56 99 60 32 2 66 2 77 0 11 -1 41 -3 66 -3z m-786 -70 c-34 -36 -41 -37 -48
-8 -8 31 -1 38 40 38 l37 0 -29 -30z m188 -57 l26 -88 -77 -78 -77 -77 -31 92
-32 93 77 72 c42 40 79 72 82 73 3 0 17 -39 32 -87z m1157 15 l74 -68 -29 -90
c-16 -50 -32 -89 -37 -88 -4 2 -39 32 -78 67 -80 71 -77 56 -38 184 11 37 24
67 28 65 4 -2 40 -33 80 -70z m122 47 c-6 -35 -17 -36 -48 -4 l-29 30 40 -3
c34 -2 39 -6 37 -23z m-1585 -50 l14 -40 -58 -52 c-32 -28 -60 -50 -64 -48 -8
6 -62 145 -57 150 8 9 114 34 132 32 12 -1 24 -16 33 -42z m1758 30 c33 -9 61
-18 63 -20 5 -4 -46 -134 -58 -148 -3 -4 -32 16 -63 44 -60 53 -60 52 -36 117
10 26 17 27 94 7z m-1974 -151 l37 -89 -46 -47 c-25 -27 -49 -45 -52 -40 -18
22 -91 213 -85 223 9 14 86 50 99 46 5 -2 27 -43 47 -93z m2201 70 c15 -8 29
-18 33 -24 3 -5 -15 -59 -41 -120 l-47 -111 -46 43 c-25 24 -47 44 -49 45 -4
2 51 140 70 176 10 19 28 17 80 -9z m-1342 -88 c0 -1 -7 -24 -17 -51 -19 -56
-25 -48 -38 44 l-7 54 31 -22 c17 -12 31 -24 31 -25z m419 -30 c-6 -36 -12
-66 -14 -66 -2 0 -10 21 -19 48 l-17 47 28 22 c15 12 29 21 31 19 1 -2 -2 -33
-9 -70z m-1455 -90 l46 -110 -23 -24 c-12 -13 -38 -37 -58 -53 l-37 -29 -46
108 c-25 59 -46 112 -46 118 0 18 101 117 110 108 4 -5 29 -58 54 -118z m471
25 l29 -91 -49 -50 -49 -50 -38 92 -39 92 52 52 c29 29 55 51 59 49 3 -2 19
-44 35 -94z m2085 44 l54 -55 -24 -57 c-13 -32 -36 -85 -50 -118 l-27 -60 -57
55 -57 55 48 117 c26 65 50 118 53 118 3 0 30 -25 60 -55z m-487 -3 l47 -47
-38 -92 -38 -92 -49 49 -49 50 29 90 c16 49 34 90 40 90 6 0 32 -21 58 -48z
m-728 -50 l17 -59 -43 -66 -44 -67 -50 0 -50 0 -44 67 -43 66 17 59 18 58 102
0 102 0 18 -58z m-555 -73 c17 -57 30 -109 30 -115 0 -10 -126 -119 -137 -119
-4 0 -21 45 -40 100 l-33 99 72 73 c40 40 73 71 75 69 2 -2 17 -50 33 -107z
m1019 -129 c-17 -52 -35 -98 -38 -102 -10 -12 -141 102 -141 122 0 9 4 30 9
46 6 16 20 62 31 103 l22 74 74 -74 74 -74 -31 -95z m-1488 -13 c13 -37 13
-37 -31 -82 -24 -25 -47 -42 -51 -37 -4 4 -24 47 -44 96 l-37 90 48 42 49 43
26 -58 c14 -31 32 -73 40 -94z m1967 68 c1 -1 -12 -35 -29 -76 -17 -41 -35
-85 -40 -98 -10 -24 -10 -24 -58 23 l-49 48 29 70 c16 38 34 80 40 94 l9 26
48 -43 c26 -23 48 -43 50 -44z m-2464 -63 l38 -89 -49 -46 c-34 -33 -56 -47
-77 -47 l-29 0 7 62 c9 72 53 221 65 214 4 -3 25 -45 45 -94z m2869 51 c19
-54 47 -177 47 -210 0 -38 -44 -29 -101 20 -27 23 -49 46 -49 52 0 14 74 185
81 185 3 0 13 -21 22 -47z m-1593 -102 c0 -9 -6 -38 -14 -66 -12 -44 -14 -47
-19 -25 -8 29 -37 189 -37 199 0 3 16 -16 35 -43 19 -27 35 -57 35 -65z m315
87 c-2 -13 -12 -66 -21 -118 l-17 -95 -13 50 c-19 71 -18 82 17 137 35 53 42
59 34 26z m-843 -109 l33 -100 -40 -34 c-22 -18 -43 -30 -47 -27 -4 4 -22 44
-41 88 l-34 82 46 46 c25 25 47 46 48 46 1 0 17 -45 35 -101z m1428 6 c0 -13
-59 -157 -69 -167 -3 -4 -25 9 -48 30 l-42 37 36 98 36 98 43 -42 c24 -24 44
-48 44 -54z m-1866 -49 l38 -88 -23 -24 c-25 -27 -36 -29 -89 -13 -33 10 -41
19 -63 70 l-25 58 55 52 c30 28 58 48 62 43 4 -5 25 -49 45 -98z m2304 40 c17
-17 32 -35 32 -40 0 -6 -10 -34 -22 -63 -20 -49 -24 -52 -71 -64 -47 -11 -50
-10 -75 14 l-25 26 23 53 c12 29 31 73 42 97 21 49 15 51 96 -23z m-1555 -106
l25 -85 -61 -62 c-34 -35 -64 -63 -67 -63 -6 0 -65 175 -65 190 0 13 130 119
137 112 3 -4 18 -45 31 -92z m790 38 l65 -58 -31 -95 c-17 -52 -34 -95 -37
-95 -3 0 -33 28 -67 63 l-62 62 26 93 c15 51 30 91 34 90 4 -2 37 -29 72 -60z
m-391 -45 c23 -91 23 -102 11 -153 -35 -138 -31 -130 -68 -130 -38 0 -32 -11
-68 133 -13 50 -13 64 0 115 36 143 31 132 67 132 l34 0 24 -97z m-870 -149
c-49 -42 -72 -31 -107 49 l-26 60 48 49 47 48 37 -88 37 -87 -36 -31z m1732
49 c-35 -81 -58 -92 -107 -49 l-36 31 36 88 37 88 48 -48 48 -49 -26 -61z
m-2228 80 c-2 -3 -14 -2 -26 2 -21 7 -21 8 -4 26 18 20 18 20 26 -2 5 -12 6
-24 4 -26z m2645 3 c-26 -11 -35 -4 -26 24 7 21 7 21 27 3 19 -17 19 -18 -1
-27z m-1885 -295 c-16 -17 -32 -29 -35 -26 -4 2 -24 47 -45 99 l-39 96 39 34
39 34 35 -104 34 -104 -28 -29z m1213 172 c2 -2 -11 -38 -29 -80 -18 -43 -36
-89 -42 -102 l-9 -24 -33 32 -34 33 35 105 35 105 37 -34 c19 -18 38 -34 40
-35z m-1669 37 c0 -5 -4 -10 -10 -10 -5 0 -10 5 -10 10 0 6 5 10 10 10 6 0 10
-4 10 -10z m2025 0 c3 -5 1 -10 -4 -10 -6 0 -11 5 -11 10 0 6 2 10 4 10 3 0 8
-4 11 -10z m-2176 -59 c201 -66 423 -192 625 -353 72 -58 77 -63 55 -69 -34
-10 -580 -9 -604 0 l-20 8 20 6 c11 3 90 20 175 38 85 18 158 35 162 38 4 4
-121 87 -277 185 -157 99 -285 181 -285 183 0 9 42 -1 149 -36z m2381 -16
c-47 -31 -176 -112 -287 -182 -111 -70 -199 -130 -195 -134 4 -3 57 -16 117
-28 227 -47 252 -54 225 -62 -31 -9 -564 -9 -604 0 -29 6 -28 7 50 69 122 97
276 198 397 259 108 54 323 133 362 133 12 0 -13 -22 -65 -55z m-1528 -197
c-31 -32 -59 -58 -63 -58 -4 0 -17 28 -28 62 l-21 62 62 64 63 63 21 -68 21
-68 -55 -57z m696 8 c-12 -33 -23 -63 -25 -65 -2 -3 -30 21 -62 53 l-59 58 19
67 c10 36 19 68 19 71 0 2 29 -24 64 -59 l64 -63 -20 -62z m-1112 129 l16 -38
-24 15 c-12 8 -29 18 -36 22 -11 6 -10 12 4 27 20 23 19 23 40 -26z m1477 -3
c-24 -18 -53 -34 -53 -29 0 3 7 21 16 42 15 36 16 37 35 19 20 -18 20 -19 2
-32z m-1903 -125 c52 -33 99 -63 104 -67 4 -5 -64 -25 -153 -46 -89 -21 -161
-41 -161 -46 0 -4 16 -26 36 -48 24 -27 31 -40 21 -40 -14 0 -97 94 -97 110 0
4 59 22 130 40 72 18 130 34 130 36 0 2 -57 49 -127 105 -71 56 -132 106 -138
111 -10 10 70 -38 255 -155z m2545 154 c-6 -5 -67 -54 -137 -110 -71 -56 -128
-103 -128 -105 0 -2 59 -18 130 -36 81 -20 129 -37 127 -44 -2 -6 -10 -12 -18
-14 -21 -4 -329 72 -329 81 -1 7 346 234 360 236 2 1 0 -3 -5 -8z m-2840 -115
l57 -45 -53 -15 c-42 -13 -54 -13 -61 -4 -8 13 -12 108 -4 108 2 0 29 -20 61
-44z m2941 -31 l-7 -43 -42 10 c-23 5 -48 12 -56 14 -9 3 8 22 45 50 65 51 71
48 60 -31z m-1011 -69 c-17 -13 -31 -23 -33 -21 -2 2 2 22 9 45 l12 41 21 -21
21 -20 -30 -24z m-957 17 c6 -20 10 -38 9 -39 -1 -1 -15 8 -31 21 -25 20 -28
26 -17 39 20 24 26 20 39 -21z m498 -20 c-3 -21 -11 -113 -17 -206 -7 -92 -13
-166 -15 -165 -2 3 -34 377 -34 401 0 4 16 7 36 7 36 0 36 0 30 -37z m-206
-143 c22 -80 44 -154 47 -165 3 -11 -44 29 -105 89 l-110 109 62 57 c33 32 62
57 63 57 0 -1 20 -67 43 -147z m410 -75 c-57 -57 -106 -103 -108 -101 -2 3 40
158 85 310 4 16 15 9 66 -43 l62 -61 -105 -105z m-103 173 c-3 -8 -6 -5 -6 6
-1 11 2 17 5 13 3 -3 4 -12 1 -19z m-260 -20 c-3 -8 -6 -5 -6 6 -1 11 2 17 5
13 3 -3 4 -12 1 -19z m1458 -98 c-10 -11 -23 -20 -28 -20 -6 0 0 11 13 25 27
29 42 25 15 -5z m-1717 -47 c30 -27 106 -104 168 -172 l113 -124 -36 -24 -36
-24 -62 30 c-130 64 -251 99 -405 116 -51 5 -57 9 -67 36 l-12 30 137 89 c75
49 139 90 140 90 2 0 29 -21 60 -47z m968 -39 c74 -47 134 -91 134 -98 -1 -45
-12 -55 -69 -61 -152 -17 -282 -53 -398 -112 l-53 -26 -36 19 c-20 10 -38 22
-40 26 -9 14 302 338 325 338 2 0 64 -39 137 -86z m-1765 -44 c29 -16 52 -68
45 -105 -9 -48 -49 -80 -101 -80 -95 0 -135 108 -64 174 25 23 86 28 120 11z
m2492 -15 c68 -69 12 -185 -83 -171 -42 6 -90 55 -90 92 0 32 25 80 47 93 35
20 98 13 126 -14z m-2152 -51 c45 -44 56 -91 31 -146 -45 -103 -188 -104 -234
0 -29 65 -9 123 55 163 45 28 109 21 148 -17z m1836 16 c43 -26 66 -63 66
-109 0 -137 -188 -181 -246 -58 -22 45 -21 74 1 116 35 65 118 89 179 51z
m-1666 -211 c-47 -34 -60 -32 -43 6 9 20 19 25 48 25 l37 0 -42 -31z m1384 21
c8 -13 -5 -13 -25 0 -13 8 -13 10 2 10 9 0 20 -4 23 -10z m-1851 -47 c-4 -10
-14 -39 -23 -65 -9 -26 -19 -48 -22 -48 -3 0 -23 25 -43 55 l-36 55 32 1 c18
0 42 4 53 9 34 15 48 12 39 -7z m2353 0 c24 -3 43 -8 43 -12 0 -3 -13 -26 -29
-50 l-29 -43 -20 45 c-11 24 -25 48 -31 51 -18 11 -13 29 6 22 9 -4 36 -10 60
-13z m-821 -26 c-80 -105 -46 -265 71 -334 40 -24 59 -28 119 -28 62 0 77 4
123 32 l52 32 44 -34 c48 -36 135 -60 179 -49 26 6 26 6 26 -55 0 -81 -7 -83
-170 -61 -484 68 -1103 70 -1618 6 -223 -28 -232 -25 -232 66 l0 63 78 1 c84
0 136 20 181 68 l24 25 43 -38 c74 -65 163 -78 249 -37 91 43 135 112 135 211
0 36 -7 70 -20 95 -24 46 -20 48 35 17 l39 -22 1 -85 c0 -96 18 -141 77 -197
127 -122 338 -86 421 72 21 40 29 135 17 195 -5 22 2 27 70 57 41 18 76 33 78
33 2 0 -8 -15 -22 -33z m-301 0 c43 -24 85 -91 85 -137 0 -46 -42 -113 -85
-137 -108 -61 -239 14 -239 137 0 123 131 198 239 137z m-534 -45 c51 -57 50
-129 -1 -181 -83 -83 -220 -22 -220 98 0 37 6 49 40 83 39 39 42 40 97 36 48
-4 61 -10 84 -36z m1088 24 c79 -41 89 -152 20 -210 -85 -72 -212 -13 -212 96
0 99 102 160 192 114z m-1656 -21 c46 -19 118 -19 164 0 20 8 37 14 38 13 31
-38 33 -120 5 -166 -21 -34 -87 -72 -125 -72 -38 0 -104 38 -125 72 -22 37
-26 103 -8 143 6 14 12 25 13 25 2 0 19 -7 38 -15z m2087 -17 c55 -90 -5 -206
-111 -216 -100 -9 -165 54 -157 153 6 67 20 87 54 74 36 -13 114 -10 149 6 42
19 43 19 65 -17z m-2865 -243 c154 -62 368 -150 475 -195 181 -75 631 -258
674 -274 42 -15 1 -17 -121 -7 -394 34 -1072 198 -1384 335 -144 64 -145 64
-130 109 30 91 111 162 171 151 19 -3 160 -57 315 -119z m3923 111 c35 -18
115 -103 137 -146 22 -42 22 -42 -122 -105 -261 -114 -621 -210 -1129 -300
-198 -35 -407 -55 -389 -38 6 6 44 23 85 38 41 16 282 113 535 218 460 189
847 347 853 347 2 0 15 -6 30 -14z m-4592 -294 c17 -11 566 -753 561 -758 -10
-10 -363 113 -493 171 -291 132 -473 148 -602 55 -38 -28 -43 -29 -50 -13 -4
10 -7 72 -7 138 0 134 14 180 79 260 51 61 188 126 316 148 43 7 185 7 196 -1z
m5159 -17 c182 -39 269 -93 316 -197 21 -47 24 -67 24 -185 0 -72 -2 -134 -5
-137 -3 -3 -31 8 -63 24 -141 71 -323 47 -593 -80 -104 -49 -471 -176 -481
-167 -2 3 121 174 274 381 l278 375 90 0 c50 1 121 -6 160 -14z m-4715 -220
c64 -125 129 -210 195 -253 26 -17 51 -32 56 -34 6 -2 16 -35 25 -74 8 -39 26
-104 39 -145 16 -47 20 -68 11 -59 -18 19 -546 729 -546 735 0 2 37 -12 83
-30 l82 -33 55 -107z m4244 163 c-12 -21 -525 -712 -540 -727 -7 -8 0 26 16
76 16 49 32 113 36 142 6 45 11 54 38 68 88 45 164 137 245 295 l46 89 80 33
c44 19 81 34 83 35 2 0 0 -5 -4 -11z m-1873 -9 c101 -6 229 -16 284 -23 86
-11 97 -14 75 -23 -65 -28 -261 -38 -725 -37 -472 0 -626 8 -698 37 -30 13
-26 14 93 26 305 31 665 38 971 20z m-2037 -161 c87 -24 161 -49 164 -56 6
-18 -45 -71 -85 -88 -18 -8 -53 -14 -78 -14 -42 0 -51 4 -99 53 -43 43 -106
135 -106 154 0 6 -8 8 204 -49z m3540 2 c-35 -65 -88 -127 -125 -145 -33 -18
-86 -19 -126 -4 -33 12 -93 67 -93 86 0 7 19 17 43 23 134 35 302 82 306 85 2
3 8 5 13 5 5 0 -3 -23 -18 -50z m-1331 -119 l49 -49 -211 -126 c-116 -70 -227
-134 -246 -143 -41 -20 -42 -23 -12 -51 42 -39 134 -71 215 -74 23 -1 42 -3
42 -6 0 -7 -231 -450 -244 -468 -11 -14 -21 23 -61 225 -26 133 -49 240 -50
239 -2 -2 -26 -106 -55 -233 -29 -126 -56 -234 -60 -238 -6 -7 -290 459 -290
476 0 4 24 7 54 7 73 0 179 34 221 72 l35 30 -23 18 c-13 10 -120 77 -239 148
l-217 129 57 50 57 50 464 -3 465 -3 49 -50z m-1836 25 c37 -8 176 -33 307
-56 206 -35 244 -45 280 -69 63 -42 207 -127 309 -183 l92 -49 -70 6 c-268 24
-638 117 -830 210 -79 38 -165 110 -165 138 0 20 -6 20 77 3z m2685 -12 c-9
-60 -182 -162 -387 -227 -196 -63 -488 -117 -628 -117 l-52 0 130 71 c72 39
174 97 228 130 l97 60 258 44 c141 24 275 48 297 53 50 12 61 10 57 -14z
m-2806 -163 c70 -61 210 -125 400 -180 76 -22 318 -75 394 -85 44 -6 46 -8
104 -104 32 -53 97 -156 143 -228 45 -73 83 -134 83 -137 0 -3 -37 11 -82 32
-93 43 -222 91 -243 91 -12 0 -15 -38 -17 -220 l-3 -221 -45 62 c-65 90 -183
207 -270 268 -69 49 -248 146 -255 139 -2 -2 5 -46 16 -98 33 -171 44 -329 31
-433 -7 -50 -19 -117 -28 -147 -19 -62 -16 -66 -59 69 -15 47 -43 119 -62 160
-32 68 -36 86 -37 166 -2 99 -16 137 -97 257 -38 55 -39 60 -39 140 0 73 -4
94 -34 165 -37 88 -69 186 -80 245 -7 36 -6 36 41 52 26 9 57 23 67 31 11 8
22 15 24 15 2 0 24 -17 48 -39z m2938 20 c17 -10 48 -24 68 -31 34 -10 37 -14
32 -38 -24 -106 -40 -158 -75 -239 -35 -84 -39 -101 -39 -178 0 -83 -1 -88
-39 -143 -80 -119 -95 -158 -97 -257 -2 -81 -6 -98 -39 -168 -20 -43 -51 -124
-69 -179 -31 -97 -33 -100 -44 -72 -51 133 -53 371 -3 612 10 51 16 92 14 92
-3 0 -53 -25 -111 -55 -164 -84 -298 -200 -425 -369 l-37 -49 0 222 c0 193 -2
221 -15 221 -22 0 -199 -67 -267 -101 -32 -16 -60 -29 -62 -29 -3 0 35 62 83
138 48 75 113 180 145 233 l58 95 126 23 c345 63 608 155 712 250 25 22 47 40
49 41 2 0 18 -8 35 -19z m-4149 -107 c33 -9 116 -41 185 -72 l125 -57 -45 -6
c-80 -11 -660 -22 -660 -12 0 17 74 115 101 136 15 10 42 23 60 28 43 10 157
2 234 -17z m5570 -3 c27 -12 53 -34 72 -62 58 -86 82 -79 -270 -78 -172 0
-332 4 -357 7 l-44 7 109 52 c215 100 375 125 490 74z m-6285 -156 c47 -20
123 -48 170 -63 84 -26 88 -27 380 -26 277 0 476 13 553 35 20 6 45 5 71 -3
50 -14 68 -28 37 -28 -38 0 -142 -30 -201 -58 -61 -29 -139 -97 -172 -150
l-21 -35 -101 7 c-217 14 -441 79 -597 172 -73 44 -256 203 -219 191 8 -3 53
-22 100 -42z m6757 -21 c-185 -177 -447 -279 -766 -300 l-98 -7 -21 34 c-60
97 -177 170 -321 199 l-86 17 54 17 c40 12 63 13 90 6 85 -22 273 -34 546 -34
330 0 354 3 548 88 56 24 107 44 112 45 6 0 -21 -29 -58 -65z m-5148 -200 c38
-11 275 -344 245 -344 -4 0 -21 9 -38 19 -17 11 -74 34 -126 52 -80 27 -114
33 -218 37 -139 5 -206 -5 -292 -47 -69 -33 -167 -129 -210 -205 -32 -56 -34
-58 -44 -35 -17 41 -13 266 6 330 46 149 204 213 503 204 83 -2 161 -7 174
-11z m3861 6 c135 -22 233 -69 278 -135 46 -66 67 -308 35 -393 -8 -20 -13
-15 -58 54 -117 180 -251 242 -493 231 -125 -5 -207 -25 -317 -78 -32 -15 -60
-27 -62 -25 -7 6 50 97 127 203 47 64 88 120 91 125 15 23 286 35 399 18z
m-2427 -424 c143 -69 175 -88 171 -103 -5 -24 -104 -686 -104 -698 0 -12 -30
32 -160 236 l-100 156 0 246 c0 136 4 247 9 247 4 0 87 -38 184 -84z m817
-163 l0 -248 -128 -196 c-70 -108 -128 -196 -129 -195 -2 2 -25 153 -53 337
-28 184 -53 346 -56 362 -3 15 -1 27 4 27 6 0 86 36 179 80 92 44 171 80 176
80 4 0 7 -111 7 -247z m532 60 c-5 -222 20 -329 113 -473 41 -64 42 -70 49
-172 4 -58 15 -145 25 -194 10 -49 17 -91 15 -93 -8 -9 -47 49 -84 124 -68
139 -120 360 -155 660 -26 230 -26 229 -63 95 -74 -266 -128 -560 -138 -746
-7 -125 -7 -126 -25 -103 -60 77 -115 279 -126 456 l-6 111 33 59 c86 153 203
302 302 384 32 27 60 49 61 49 1 0 0 -71 -1 -157z m-1965 59 c96 -96 150 -166
232 -299 l53 -88 -5 -85 c-7 -114 -39 -206 -109 -312 -32 -48 -59 -88 -62 -88
-2 0 0 17 5 38 14 59 10 222 -7 313 -20 112 -47 201 -92 307 l-36 87 -13 -120
c-30 -291 -107 -521 -229 -684 -21 -28 -39 -49 -40 -48 -1 1 4 31 12 67 7 36
17 121 20 190 7 124 8 126 45 180 88 130 122 262 122 478 0 83 3 152 8 152 5
0 48 -40 96 -88z m1147 -1627 c112 -737 202 -1341 201 -1343 -1 -1 -15 2 -31
8 -63 25 -215 50 -329 56 -136 7 -258 -5 -394 -39 l-91 -23 5 30 c6 35 217
1432 325 2156 39 261 76 504 83 540 l11 65 8 -55 c5 -30 100 -658 212 -1395z
m-3169 1050 c104 -22 201 -73 265 -138 114 -117 170 -235 214 -446 51 -247
198 -454 415 -584 96 -57 146 -72 241 -71 102 0 238 41 463 138 47 21 60 46
-132 -258 -83 -131 -151 -240 -151 -242 0 -22 260 44 357 91 167 79 351 244
463 414 37 56 56 78 57 65 1 -10 12 -171 23 -356 l21 -338 -108 -180 -108
-180 -3 296 c-2 267 -4 295 -18 290 -9 -4 -126 -87 -259 -186 -133 -99 -247
-180 -253 -180 -6 0 -143 65 -304 144 -309 151 -453 239 -607 369 -176 149
-268 254 -297 342 -14 39 -14 58 0 179 37 316 9 474 -102 585 -65 65 -150 107
-259 127 -48 9 -94 18 -101 20 -12 3 -72 91 -72 106 0 14 181 9 255 -7z m6155
6 c0 -5 -15 -30 -32 -57 l-33 -48 -90 -16 c-157 -27 -281 -103 -338 -207 -58
-108 -71 -265 -41 -519 l15 -135 -30 -64 c-52 -112 -261 -312 -481 -460 -108
-72 -681 -366 -712 -365 -7 1 -125 84 -262 185 -137 102 -253 185 -257 185 -5
0 -9 -134 -9 -297 l0 -298 -110 184 -109 183 5 57 c6 70 34 563 35 617 0 34 2
37 12 20 191 -301 412 -474 702 -547 192 -48 192 -64 5 230 -88 140 -159 255
-158 256 2 2 46 -15 98 -37 52 -21 142 -55 200 -75 91 -31 118 -36 202 -37 96
-1 97 -1 190 47 109 56 218 142 287 230 71 88 146 237 166 327 54 247 95 350
182 452 87 102 161 148 288 179 74 19 275 26 275 10z m-6520 -81 c13 -27 22
-51 19 -53 -2 -2 -40 -16 -84 -31 -103 -36 -252 -111 -381 -192 -66 -41 -124
-70 -165 -80 -70 -18 -169 -23 -213 -11 -27 8 -25 10 72 72 138 89 296 175
432 236 132 59 258 108 281 108 9 1 25 -19 39 -49z m2835 -12 c21 -35 74 -117
117 -184 43 -66 78 -132 78 -145 0 -13 -30 -219 -66 -459 l-65 -435 -82 -82
c-44 -45 -82 -81 -84 -80 -1 2 -14 230 -28 507 -14 278 -26 512 -28 520 -1 8
-35 -60 -76 -150 -119 -269 -148 -328 -204 -413 -74 -113 -144 -194 -224 -260
-57 -46 -181 -127 -196 -127 -2 0 9 28 26 63 30 64 110 296 145 424 l20 72
-66 -41 c-205 -126 -360 -161 -516 -117 l-38 11 63 32 c138 69 270 177 344
279 22 31 53 61 69 68 58 25 145 99 189 161 57 80 82 131 122 242 l32 89 6
-44 c20 -144 16 -309 -9 -428 -4 -19 30 10 133 114 156 158 253 291 281 386 9
32 17 59 18 59 1 0 18 -28 39 -62z m3935 32 c125 -46 324 -140 445 -209 159
-92 266 -162 260 -171 -9 -15 -87 -20 -157 -9 -95 15 -147 36 -233 93 -96 64
-307 169 -396 197 -41 13 -75 24 -76 24 -8 4 54 105 64 105 6 0 48 -13 93 -30z
m-2921 -57 c25 -151 89 -302 169 -403 52 -65 96 -106 187 -172 l80 -59 183
-320 c101 -177 182 -322 180 -325 -7 -7 -134 75 -199 130 -79 65 -185 195
-250 306 -25 44 -90 179 -144 300 -54 121 -99 219 -101 217 -2 -2 -13 -217
-24 -478 -12 -261 -24 -491 -28 -512 l-7 -38 -83 78 -82 78 -68 455 -69 454
72 111 c39 60 91 143 116 182 24 40 46 73 50 73 3 0 11 -35 18 -77z m508 -263
c68 -119 175 -218 253 -235 22 -5 41 -22 70 -65 79 -117 226 -242 337 -288 24
-9 43 -20 43 -23 0 -9 -116 -29 -164 -29 -104 0 -257 64 -449 190 -144 93
-156 108 -183 232 -18 79 -24 336 -10 422 l8 48 34 -103 c19 -57 47 -124 61
-149z m-4152 131 c18 -7 17 -9 -12 -24 -17 -9 -86 -57 -152 -107 -80 -59 -135
-93 -163 -100 -65 -15 -264 -25 -271 -13 -4 5 40 37 96 71 148 88 269 139 392
167 70 16 83 16 110 6z m6429 -32 c100 -33 249 -105 347 -167 79 -51 68 -58
-75 -48 -153 10 -177 18 -285 99 -53 40 -120 88 -149 107 -44 28 -50 36 -35
42 28 11 99 -1 197 -33z m-6180 -71 c20 -23 36 -44 36 -48 0 -3 -42 -42 -94
-87 -79 -68 -105 -85 -162 -103 -72 -22 -249 -48 -259 -38 -7 7 81 92 146 141
109 83 261 176 286 177 6 0 28 -19 47 -42z m5875 -7 c119 -72 230 -154 291
-216 l54 -55 -34 0 c-53 0 -157 19 -234 41 -59 18 -83 33 -163 101 -51 45 -93
85 -93 89 0 14 71 89 85 89 6 0 49 -22 94 -49z m-7172 -218 l68 -16 -120 -121
c-184 -186 -299 -349 -354 -505 l-28 -76 -87 -44 c-78 -40 -96 -45 -171 -49
-82 -4 -85 -4 -85 17 0 67 87 252 181 386 75 106 269 305 388 398 l84 66 29
-20 c15 -11 58 -27 95 -36z m8548 -23 c185 -148 370 -359 460 -525 46 -85 95
-213 95 -247 0 -19 -4 -20 -83 -16 -73 4 -95 10 -174 47 -79 38 -92 47 -97 73
-10 52 -82 194 -145 285 -70 103 -225 278 -301 342 l-53 45 72 18 c40 10 85
26 99 37 15 11 31 16 37 12 5 -4 46 -36 90 -71z m-7173 -96 l-7 -69 -40 -13
c-21 -7 -82 -15 -135 -19 l-95 -5 20 20 c11 12 72 68 135 126 l115 104 7 -38
c4 -21 4 -69 0 -106z m5806 -62 l47 -43 -90 5 c-49 2 -111 10 -137 16 l-46 12
-7 74 c-4 40 -4 90 -1 109 l7 36 90 -83 c50 -46 111 -102 137 -126z m-6823
157 c31 -14 77 -23 129 -26 l81 -4 -150 -152 c-163 -166 -272 -295 -358 -428
l-56 -85 -96 -42 c-129 -56 -163 -61 -193 -29 l-23 25 24 71 c64 184 254 419
507 629 41 34 78 62 81 62 4 0 28 -10 54 -21z m7743 -41 c115 -92 299 -283
371 -384 74 -103 140 -235 148 -292 5 -35 2 -42 -20 -57 -33 -21 -62 -15 -185
38 l-93 40 -57 86 c-89 136 -205 274 -362 432 l-145 147 81 5 c50 3 97 12 125
25 24 11 48 21 52 21 5 1 43 -27 85 -61z m-7270 -117 l92 -6 -86 -95 c-154
-170 -281 -344 -323 -444 -19 -43 -22 -46 -98 -69 -116 -37 -226 -53 -257 -39
-21 9 -26 19 -26 47 0 78 98 204 358 462 l183 183 32 -17 c20 -10 68 -19 125
-22z m6988 -128 c262 -261 374 -402 374 -475 0 -75 -67 -75 -315 -2 -47 13
-52 18 -74 70 -47 108 -176 283 -331 449 l-75 80 97 6 c65 4 104 11 120 22 12
9 26 16 29 16 3 1 82 -74 175 -166z m-6540 -53 c-74 -88 -224 -270 -271 -328
-32 -40 -74 -81 -94 -92 -101 -51 -274 -79 -287 -46 -14 37 131 252 274 406
l69 75 161 0 c142 0 159 -2 148 -15z m6102 -13 c32 -29 160 -182 211 -251 58
-78 114 -184 107 -201 -4 -11 -21 -15 -58 -15 -61 0 -106 11 -198 47 -64 25
-67 28 -210 204 -80 99 -157 194 -171 212 l-27 32 161 -3 c151 -2 162 -4 185
-25z m-5941 -239 c15 -17 14 -22 -23 -76 -57 -83 -121 -143 -188 -175 -67 -33
-138 -39 -162 -15 -14 14 -14 19 0 47 25 48 100 138 204 243 l96 97 28 -51
c16 -29 36 -60 45 -70z m5740 -113 c35 -44 71 -93 80 -109 13 -25 13 -30 -1
-44 -26 -26 -100 -18 -174 19 -77 40 -103 64 -166 157 l-47 69 40 63 c23 35
41 68 41 74 0 16 153 -139 227 -229z m-5559 -78 c67 -67 72 -75 56 -88 -39
-32 -234 -20 -234 15 0 15 88 146 98 146 4 0 40 -33 80 -73z m5199 31 c51 -72
67 -109 51 -119 -38 -25 -193 -24 -223 1 -15 12 -9 20 57 87 40 40 75 73 79
73 3 0 19 -19 36 -42z m-7111 -164 c58 -11 129 3 217 40 44 20 81 34 81 33 1
-1 11 -16 22 -33 l22 -30 -60 -80 c-129 -172 -246 -404 -400 -790 -72 -181
-85 -208 -119 -234 -63 -51 -202 -119 -285 -141 -82 -21 -238 -29 -303 -14
-33 7 -33 7 -27 52 19 144 93 408 163 588 98 250 274 593 308 599 104 20 141
31 199 59 l68 32 39 -37 c23 -22 53 -40 75 -44z m9213 6 c31 -7 65 -13 77 -16
37 -7 252 -446 343 -703 57 -159 143 -512 129 -527 -13 -12 -165 -21 -230 -13
-128 14 -238 57 -364 141 l-60 40 -93 233 c-144 362 -296 656 -419 809 l-32
38 22 32 c12 17 23 32 24 34 1 2 24 -8 51 -21 66 -34 148 -57 200 -57 51 0
116 30 139 64 l15 25 71 -34 c39 -19 96 -39 127 -45z m-8378 -5 c29 -24 86
-45 123 -45 14 0 4 -15 -38 -61 -146 -157 -291 -437 -391 -752 -24 -78 -49
-160 -55 -183 -9 -36 -17 -45 -85 -83 -106 -61 -185 -91 -285 -108 -78 -14
-202 -15 -215 -2 -6 7 152 417 229 594 106 240 224 445 320 552 44 49 48 51
113 57 38 4 102 18 143 31 98 30 107 30 141 0z m7374 0 c49 -14 118 -28 153
-31 59 -6 65 -10 103 -53 144 -163 284 -438 475 -931 94 -243 94 -228 -11
-229 -135 -1 -267 38 -410 120 -74 42 -76 44 -91 98 -68 250 -156 471 -259
656 -77 137 -119 198 -189 273 -38 40 -45 52 -30 52 37 0 94 21 121 45 16 13
33 24 38 25 6 0 50 -11 100 -25z m-6061 -27 l39 -28 -61 0 c-89 0 -99 6 -66
41 15 16 32 25 38 22 6 -4 29 -20 50 -35z m4714 -20 c-7 -4 -42 -8 -77 -8
l-65 0 49 35 49 35 28 -27 c21 -20 25 -29 16 -35z m-5544 -25 c18 -10 56 -17
92 -17 l60 -1 -61 -80 c-178 -234 -317 -535 -405 -883 -11 -43 -14 -45 -106
-89 -91 -43 -261 -88 -305 -81 -16 3 -15 13 16 133 49 191 108 351 190 520
111 229 248 419 380 528 l57 47 25 -31 c14 -16 39 -37 57 -46z m6431 8 c165
-144 339 -419 450 -711 44 -114 111 -339 121 -405 l7 -47 -54 7 c-91 11 -196
43 -279 85 -75 38 -80 42 -90 82 -35 141 -128 399 -189 524 -61 124 -185 322
-255 409 l-25 30 62 1 c70 1 113 19 149 62 26 33 22 34 103 -37z m-2709 -348
c-33 -98 -60 -173 -62 -168 -2 6 -19 120 -39 255 -19 135 -38 256 -41 270 -4
19 20 0 98 -77 l103 -103 -59 -177z m-1084 72 l-38 -250 -58 178 -57 178 93
92 c74 73 93 88 95 72 2 -11 -14 -132 -35 -270z m-2237 260 c24 -8 78 -14 133
-15 l93 0 -56 -66 c-161 -190 -269 -410 -380 -774 -26 -85 -54 -167 -61 -182
-31 -60 -115 -95 -256 -105 -102 -7 -97 -15 -72 105 44 217 191 576 309 759
73 112 224 293 245 293 3 0 23 -7 45 -15z m5580 -47 c132 -145 245 -323 329
-514 75 -171 153 -420 171 -543 l6 -44 -88 6 c-114 8 -186 30 -229 70 -30 28
-41 54 -85 197 -121 394 -224 606 -384 790 l-56 65 108 5 c59 3 117 11 128 18
33 19 41 15 100 -50z m-5024 -29 c19 -10 18 -12 -16 -72 -115 -197 -248 -500
-325 -736 -36 -112 -39 -117 -81 -144 -47 -30 -145 -62 -221 -72 -59 -8 -59
-9 -18 129 120 413 235 656 395 833 l56 62 92 4 c51 1 93 4 95 5 2 1 12 -3 23
-9z m4482 1 l81 0 53 -57 c114 -122 218 -303 296 -515 41 -110 137 -421 137
-444 0 -12 -9 -14 -47 -9 -77 10 -175 42 -223 73 -44 28 -46 32 -84 148 -78
239 -197 513 -305 699 -48 83 -51 90 -34 102 9 8 24 11 31 8 8 -3 50 -5 95 -5z
m-3393 -260 c0 -71 -3 -130 -7 -129 -5 0 -55 24 -112 53 l-103 52 103 76 c57
42 107 77 112 77 4 1 7 -57 7 -129z m2286 53 l106 -77 -103 -52 c-57 -29 -107
-53 -111 -53 -5 -1 -8 58 -8 129 0 72 2 130 5 130 3 0 53 -35 111 -77z m-3212
-51 l24 -48 -20 -45 c-55 -121 -118 -281 -173 -444 l-62 -180 -44 -22 c-40
-21 -131 -34 -144 -21 -9 9 45 179 108 337 33 86 103 241 155 345 l94 189 19
-31 c10 -18 29 -53 43 -80z m4187 -74 c97 -193 232 -532 258 -650 8 -33 6 -37
-13 -40 -35 -6 -106 11 -141 32 -30 18 -38 35 -80 163 -47 141 -150 407 -186
479 l-19 38 41 81 41 82 25 -44 c14 -24 47 -88 74 -141z m-3053 -332 l274
-137 -87 -54 c-120 -76 -198 -139 -296 -243 -86 -91 -159 -191 -200 -274 -13
-27 -26 -48 -29 -48 -6 0 -660 1233 -660 1244 0 5 568 -272 998 -488z m2424
-134 c-180 -342 -330 -622 -333 -622 -3 0 -13 17 -23 38 -91 191 -313 416
-556 560 l-35 21 635 315 c349 173 636 313 637 312 2 -1 -145 -282 -325 -624z
m-2207 323 c25 -81 44 -150 42 -151 -3 -4 -217 105 -217 111 0 8 123 195 126
192 2 -2 24 -70 49 -152z m1434 60 c34 -52 61 -97 61 -100 0 -7 -211 -118
-215 -113 -4 4 86 308 91 308 1 0 29 -43 63 -95z m-2623 -155 l51 -100 -40
-137 c-21 -76 -45 -145 -53 -154 -21 -23 -108 -49 -165 -49 -49 0 -49 0 -43
28 23 103 178 512 194 512 3 0 28 -45 56 -100z m3783 63 c34 -67 128 -316 151
-398 12 -43 24 -85 27 -92 13 -35 -176 -2 -211 36 -10 10 -28 59 -42 107 -13
49 -31 110 -40 136 l-15 47 53 100 c29 56 54 101 55 101 2 0 11 -17 22 -37z
m-196 -428 c8 -39 10 -72 5 -74 -12 -4 -70 7 -86 18 -10 6 -6 22 19 74 18 37
36 63 40 59 4 -4 14 -38 22 -77z m-3404 16 c17 -32 31 -61 31 -64 0 -8 -61
-27 -87 -27 -18 0 -23 4 -19 18 2 9 10 43 16 75 6 31 15 57 19 57 5 0 22 -27
40 -59z m-896 -215 c12 -3 39 -6 60 -6 20 0 37 -3 37 -7 0 -3 -14 -62 -31
-130 -16 -69 -40 -186 -52 -261 l-23 -137 -159 -32 c-88 -18 -163 -31 -167
-30 -5 2 102 443 138 565 4 13 17 25 33 28 14 3 51 14 81 23 42 14 56 15 58 5
2 -6 13 -15 25 -18z m721 0 c13 -4 17 -12 12 -29 -7 -26 -33 -225 -41 -318
l-6 -66 -87 -16 c-48 -8 -88 -14 -90 -13 -5 5 50 411 57 424 13 23 103 50 121
36 8 -6 23 -14 34 -18z m3838 -23 c7 -17 59 -415 55 -419 -2 -3 -170 27 -175
31 -1 1 -7 53 -13 116 -5 63 -16 152 -24 198 -15 86 -13 101 9 101 8 0 19 6
25 13 9 12 20 11 63 -4 29 -10 56 -26 60 -36z m729 13 c24 -5 29 -15 57 -123
55 -206 116 -463 111 -467 -2 -2 -76 10 -165 27 l-161 30 -18 116 c-10 64 -33
181 -51 261 -19 79 -34 148 -34 152 0 4 17 8 38 8 50 0 82 10 82 25 0 9 15 8
58 -6 31 -9 69 -20 83 -23z m-6757 -16 l-7 -50 37 0 36 0 -34 -67 c-115 -230
-234 -634 -287 -978 l-12 -80 -65 -60 c-72 -66 -144 -125 -153 -125 -3 0 -14
28 -23 62 -28 102 -83 193 -170 285 -43 46 -92 91 -107 99 l-28 14 40 118 c83
241 150 380 285 595 l77 123 91 12 c94 12 202 44 271 80 22 12 44 21 48 22 4
0 5 -22 1 -50z m544 5 c-5 -44 -5 -45 23 -45 16 0 29 -3 29 -6 0 -3 -20 -56
-44 -117 -45 -115 -102 -310 -132 -454 -9 -45 -20 -86 -23 -92 -7 -11 -440
-96 -448 -87 -21 21 131 481 211 639 l61 121 93 18 c51 10 119 29 150 42 82
35 86 34 80 -19z m2006 -121 c47 -91 86 -168 86 -173 0 -4 -71 -20 -157 -35
-87 -16 -164 -31 -172 -34 -11 -4 -12 10 -6 84 6 84 30 239 41 276 4 15 72 43
110 47 6 1 50 -74 98 -165z m3111 151 c52 -15 54 -17 64 -63 14 -62 28 -159
37 -256 5 -65 4 -78 -7 -74 -8 3 -85 18 -171 34 -87 16 -158 32 -158 37 0 11
171 337 177 337 3 0 29 -7 58 -15z m1929 -10 c36 -13 107 -33 158 -43 l93 -19
56 -109 c30 -60 74 -163 98 -229 51 -144 127 -412 119 -421 -4 -3 -107 13
-231 37 l-224 42 -23 106 c-35 166 -87 346 -130 454 -22 55 -40 103 -40 108 0
5 11 9 25 9 23 0 25 4 25 45 0 25 2 45 4 45 2 0 33 -11 70 -25z m539 -5 c84
-38 190 -67 275 -75 l68 -7 82 -133 c190 -307 289 -558 406 -1030 24 -99 47
-195 51 -214 l7 -34 -113 6 c-139 7 -207 21 -280 58 -57 28 -165 111 -251 190
l-46 44 -27 155 c-57 337 -166 696 -280 920 l-25 50 36 0 37 0 -7 50 c-4 28
-5 50 -3 50 2 0 34 -13 70 -30z m-8820 -14 c-6 -38 -3 -40 79 -51 l46 -7 -53
-82 c-100 -154 -187 -332 -262 -536 -19 -52 -36 -96 -37 -97 -2 -2 -19 4 -39
12 -20 8 -54 15 -76 15 -30 0 -43 5 -51 20 -6 11 -33 33 -61 49 -40 23 -56 39
-75 81 -15 32 -29 50 -37 47 -170 -68 -273 -110 -276 -113 -3 -3 3 -29 13 -58
15 -44 17 -60 7 -87 -6 -17 -11 -53 -11 -79 0 -37 -5 -51 -26 -71 -14 -13 -32
-36 -40 -51 -18 -34 -18 -105 0 -137 11 -21 11 -32 -5 -77 -14 -39 -19 -82
-19 -157 0 -124 23 -223 74 -325 l36 -71 -83 -31 c-85 -33 -218 -71 -228 -64
-3 1 0 54 7 116 62 575 205 1101 422 1551 l66 139 36 -6 c189 -34 385 -6 545
77 28 14 51 26 52 27 1 0 -1 -15 -4 -34z m2555 17 c17 -3 32 -8 32 -12 0 -7
-49 -383 -56 -427 -4 -30 -5 -31 -102 -48 -53 -10 -105 -20 -116 -23 -17 -5
-18 -1 -11 48 10 74 52 278 77 370 l20 76 47 16 c25 8 53 13 61 10 8 -3 30 -7
48 -10z m4457 -9 c30 -12 35 -21 55 -96 27 -100 80 -354 80 -386 0 -17 -4 -22
-17 -19 -10 3 -62 13 -116 23 -83 15 -98 21 -102 38 -9 48 -56 438 -53 441 2
1 21 7 43 13 42 10 57 8 110 -14z m2660 -70 c70 -18 231 -24 344 -14 l54 5 61
-120 c193 -376 347 -917 416 -1453 11 -84 20 -170 20 -191 l0 -39 -62 14
c-131 30 -275 94 -393 174 -97 66 -228 196 -258 257 -15 28 -51 153 -82 278
-110 447 -226 741 -400 1011 l-53 82 46 7 c82 11 85 13 78 50 l-7 34 83 -38
c46 -22 115 -47 153 -57z m-7898 56 c45 0 54 -3 49 -15 -9 -25 -113 -446 -126
-511 -7 -34 -15 -66 -19 -71 -6 -11 -432 -96 -439 -88 -8 7 79 336 115 436 19
54 49 122 67 151 l31 52 87 13 c48 7 107 21 130 31 24 10 45 15 46 10 2 -4 29
-8 59 -8z m6130 -33 c82 -11 87 -13 108 -47 30 -48 78 -168 109 -270 29 -97
87 -332 83 -336 -3 -3 -413 73 -433 80 -6 2 -14 24 -18 48 -7 43 -122 516
-133 543 -4 12 6 15 51 15 31 0 56 4 56 9 0 6 20 1 46 -10 25 -11 84 -26 131
-32z m-4457 -391 c0 -3 -11 -51 -25 -108 -49 -202 -49 -442 0 -632 13 -55 22
-102 20 -105 -3 -2 -99 12 -213 32 -1701 298 -2097 369 -2100 371 -1 2 118 27
265 55 2015 391 2053 398 2053 387z m3018 -82 c246 -47 761 -146 1144 -220
383 -73 700 -134 704 -134 4 0 5 -2 2 -5 -2 -3 -119 -25 -259 -49 -283 -50
-1088 -191 -1654 -291 -203 -36 -380 -65 -391 -65 l-22 0 20 63 c63 204 63
490 -2 723 -14 53 -15 64 -3 64 7 0 215 -38 461 -86z m-7075 -252 c14 -36 17
-38 55 -34 33 3 42 0 52 -18 7 -12 10 -33 7 -46 -3 -17 3 -28 20 -40 23 -14
26 -14 44 2 14 12 23 14 30 7 7 -7 21 -7 45 0 19 6 37 8 40 5 11 -11 -40 -75
-76 -96 -37 -21 -37 -21 -29 -69 4 -26 8 -54 8 -60 1 -7 12 -20 26 -29 23 -15
27 -15 49 -1 14 10 31 37 41 67 19 57 42 69 98 51 49 -16 160 -133 201 -210
40 -77 69 -169 64 -208 -3 -24 -9 -29 -43 -35 -22 -4 -70 -7 -106 -7 l-66 -1
5 -50 c2 -27 -1 -78 -8 -114 -12 -64 -12 -65 -58 -84 -90 -38 -88 -38 -164 14
-42 29 -75 59 -83 77 l-12 29 -69 -61 c-83 -74 -109 -83 -135 -50 -69 91 -112
239 -107 371 5 135 43 171 134 128 102 -50 137 22 56 116 -16 19 -28 22 -90
20 -87 -1 -111 14 -64 41 18 10 32 24 32 31 0 6 11 12 24 12 17 0 27 8 34 28
8 24 6 31 -14 49 -32 29 -31 66 2 91 25 18 26 21 14 57 -10 31 -10 39 1 46 22
14 26 11 42 -29z m1422 -202 c94 -17 183 -33 199 -36 l28 -6 -73 -75 c-95 -95
-187 -163 -280 -207 -80 -38 -149 -55 -149 -38 0 17 59 364 65 383 3 10 13 15
23 13 9 -2 94 -17 187 -34z m8059 -140 c14 -80 28 -165 32 -189 l6 -44 -38 7
c-63 12 -173 67 -254 127 -95 71 -216 192 -198 198 7 3 103 21 213 41 176 31
201 34 207 20 4 -8 18 -80 32 -160z m-7459 32 l200 -37 7 -140 c4 -77 16 -241
25 -365 31 -390 21 -492 -83 -845 -24 -82 -67 -231 -95 -330 -28 -99 -54 -189
-58 -199 -6 -15 -15 -3 -49 61 -117 226 -172 419 -213 758 -21 165 -18 725 4
925 22 197 25 210 45 209 9 0 107 -17 217 -37z m6859 6 c27 -150 40 -367 40
-668 0 -350 -10 -474 -59 -716 -29 -141 -39 -174 -58 -174 -17 0 -171 -75
-208 -101 l-28 -20 -10 33 c-108 372 -159 588 -168 728 -3 41 2 154 11 250 9
96 21 273 26 394 5 120 12 221 15 225 7 6 374 78 411 80 17 1 23 -6 28 -31z
m-6305 -108 c90 -16 165 -31 166 -32 1 -2 10 -89 19 -193 l17 -190 -45 -155
c-25 -85 -77 -254 -116 -374 l-72 -219 -17 39 c-51 114 -116 369 -131 517 -12
123 -30 451 -30 565 0 80 1 82 23 77 12 -3 96 -19 186 -35z m5717 -137 c-11
-287 -26 -492 -42 -578 -36 -191 -117 -447 -134 -428 -12 12 -165 487 -201
620 l-30 114 16 187 c10 103 18 188 20 190 2 2 341 67 369 71 5 1 6 -73 2
-176z m-6675 -24 c-39 -439 -15 -864 70 -1229 l31 -135 -111 -380 c-62 -209
-114 -381 -115 -383 -7 -7 -130 194 -152 248 -33 81 -89 301 -114 443 -46 269
-55 401 -55 827 0 223 4 422 8 442 7 34 11 38 64 53 100 29 204 90 323 189 29
25 56 44 58 42 2 -2 -1 -55 -7 -117z m7544 26 c83 -65 178 -117 256 -139 69
-20 66 -11 75 -248 6 -150 5 -178 -7 -178 -8 0 -77 11 -153 25 -77 14 -143 25
-148 25 -4 0 -3 -12 3 -27 10 -27 10 -27 -11 -8 -11 10 -23 16 -26 13 -3 -3
-25 -115 -49 -249 -25 -134 -47 -255 -50 -268 -5 -21 -3 -23 19 -17 29 7 29 6
-4 -124 -16 -63 -17 -65 -53 -71 -20 -3 -37 -3 -37 0 0 3 7 40 16 81 70 336
89 825 47 1222 l-6 62 29 -22 c16 -13 61 -47 99 -77z m-6057 39 c108 -20 198
-37 200 -39 2 -2 -17 -54 -41 -117 -43 -107 -116 -335 -132 -405 -3 -18 -10
-35 -14 -38 -12 -7 -122 145 -169 233 -37 71 -41 86 -51 197 -20 214 -20 205
-4 205 8 0 103 -16 211 -36z m4672 -11 c0 -122 -23 -278 -47 -328 -44 -88
-169 -265 -188 -265 -3 0 -5 6 -5 14 0 28 -84 295 -132 419 -28 71 -48 130
-46 132 4 5 367 72 396 74 20 1 22 -4 22 -46z m-4331 -283 c30 -105 113 -227
185 -271 35 -22 26 -25 -99 -34 -49 -4 -141 -13 -204 -21 -62 -8 -116 -12
-119 -10 -13 14 95 354 165 518 l48 113 6 -125 c3 -69 11 -145 18 -170z m3840
177 c47 -113 107 -289 145 -426 l25 -94 -37 7 c-20 3 -109 13 -197 22 -229 22
-215 16 -162 68 123 119 191 308 173 481 -3 33 -2 55 3 50 4 -6 27 -54 50
-108z m-153 -53 c-13 -155 -57 -257 -147 -338 -28 -25 -54 -46 -58 -46 -10 0
-203 392 -196 399 9 8 330 68 374 70 l34 1 -7 -86z m-3406 26 c90 -16 166 -30
167 -30 2 0 -35 -77 -83 -171 l-85 -172 -46 44 c-76 75 -123 192 -123 309 0
28 1 50 3 50 1 0 77 -13 167 -30z m-2699 -37 c19 -5 19 -12 12 -187 -16 -375
-5 -723 32 -1010 8 -61 13 -111 12 -113 -2 -1 -88 154 -192 345 -104 191 -217
398 -252 460 -67 121 -74 153 -54 245 6 23 12 54 16 70 4 21 11 27 33 27 46 0
101 20 135 48 17 15 57 44 87 63 30 20 75 53 100 74 l45 38 3 -28 c2 -17 11
-29 23 -32z m8690 17 c73 -57 163 -105 245 -130 l72 -21 8 -307 c17 -641 9
-1077 -22 -1259 -6 -30 -8 -27 -51 58 -74 149 -182 271 -320 362 -35 23 -63
47 -63 54 0 7 5 58 11 113 11 96 13 100 30 84 22 -20 15 -44 69 256 22 124 43
237 46 253 5 26 4 27 -20 17 -24 -9 -26 -8 -16 9 14 28 14 28 -29 35 l-39 6
-6 57 c-3 32 -8 133 -12 224 -6 163 -6 166 15 172 15 3 21 13 21 31 0 14 2 26
5 26 3 0 28 -18 56 -40z m-5506 -134 c106 -163 290 -334 463 -431 39 -22 72
-42 72 -45 0 -7 -1280 -653 -1285 -648 -2 1 60 116 137 253 113 200 293 539
513 965 16 32 19 33 29 16 6 -10 38 -59 71 -110z m2580 -386 c52 -102 163
-309 248 -460 85 -151 153 -276 152 -278 -3 -3 -483 246 -973 505 l-293 155
78 44 c204 117 363 279 508 518 l17 29 85 -164 c46 -90 127 -247 178 -349z
m3717 276 l95 -95 6 -104 c41 -673 32 -1270 -28 -1747 -21 -164 -69 -404 -96
-475 -36 -97 -220 -458 -229 -449 -4 5 -49 205 -100 444 -83 391 -91 442 -86
506 3 39 10 83 15 97 6 14 21 79 35 144 61 292 80 661 66 1286 -5 238 -10 442
-10 454 0 21 5 22 93 26 50 1 104 4 118 5 21 2 45 -17 121 -92z m-7515 -168
l75 -83 -48 -13 c-27 -7 -98 -28 -158 -47 -60 -19 -111 -34 -113 -32 -1 2 8
37 22 78 14 41 37 117 51 169 14 52 27 102 30 110 3 10 16 -6 36 -42 17 -31
64 -94 105 -140z m4874 -42 c22 -70 39 -130 37 -132 -2 -2 -49 12 -105 31 -56
18 -127 39 -157 46 l-55 12 68 74 c37 40 85 103 107 140 l38 66 14 -54 c7 -30
31 -112 53 -183z m-7722 60 c9 -8 42 -29 75 -48 l58 -33 94 -270 94 -269 0
-157 c0 -328 40 -652 112 -901 l30 -107 -96 -458 c-53 -252 -100 -466 -104
-476 -10 -24 -221 404 -251 508 -44 149 -86 440 -111 760 -18 222 -24 810 -11
1085 15 329 15 330 54 357 39 27 37 26 56 9z m-236 -228 c-15 -340 -9 -1113
11 -1313 21 -227 56 -452 97 -631 17 -76 32 -148 32 -159 1 -11 -41 -219 -93
-463 -85 -396 -96 -440 -107 -415 -28 70 -149 477 -198 668 -121 470 -184 872
-204 1304 -9 180 -2 635 15 937 l6 121 74 11 c72 11 234 66 304 103 73 38 72
41 63 -163z m660 -43 c488 -901 621 -1138 727 -1300 160 -244 157 -237 137
-321 -20 -78 -34 -97 -100 -131 -75 -38 -134 -41 -198 -10 -63 30 -82 44 -97
73 -6 11 -34 111 -61 221 -49 193 -144 478 -459 1368 -60 171 -107 314 -105
318 15 27 48 -20 156 -218z m10268 195 c80 -41 221 -87 290 -95 l57 -7 6 -97
c17 -263 26 -789 16 -978 -31 -578 -136 -1120 -346 -1783 -31 -96 -59 -178
-63 -183 -6 -6 -191 835 -193 880 -1 10 15 90 35 178 87 387 111 657 111 1285
1 272 -2 570 -7 663 -9 194 -12 190 94 137z m-1287 -81 c4 -3 -20 -39 -53 -80
-33 -41 -58 -76 -56 -78 2 -2 43 11 91 28 48 17 88 30 90 28 3 -3 -37 -229
-42 -236 -1 -1 -35 24 -75 58 -40 33 -74 60 -75 58 -2 -2 10 -45 26 -97 16
-52 28 -95 26 -97 -2 -2 -60 7 -129 19 l-126 21 17 23 c9 13 39 50 65 83 27
34 44 61 40 61 -5 0 -49 -13 -97 -30 -75 -25 -86 -27 -82 -12 2 9 12 63 22
120 10 56 21 102 25 102 4 0 40 -27 78 -61 39 -33 71 -57 71 -52 0 5 -13 49
-30 98 -16 49 -30 90 -30 90 0 5 239 -41 244 -46z m-5949 -117 c-36 -69 -59
-98 -101 -132 -88 -70 -277 -271 -359 -380 -167 -225 -268 -432 -340 -696 -32
-121 -37 -131 -77 -167 -41 -38 -161 -101 -245 -131 -42 -15 -43 -15 -43 7 1
50 38 271 46 274 43 15 142 94 194 154 78 91 122 158 244 377 193 347 292 488
434 623 80 77 98 89 183 122 52 20 98 36 102 37 5 0 -13 -40 -38 -88z m3536
46 c166 -63 351 -283 562 -668 208 -378 279 -479 396 -556 35 -24 67 -44 71
-46 5 -2 6 -63 3 -135 l-6 -133 -26 5 c-43 7 -169 76 -212 114 -36 32 -42 46
-64 131 -74 295 -220 580 -417 815 -72 86 -246 260 -316 318 -28 22 -112 165
-112 190 0 10 17 5 121 -35z m-4021 -36 c-154 -77 -247 -133 -354 -209 -49
-35 -87 -58 -84 -51 3 7 18 50 34 96 l29 82 70 29 c94 39 348 107 410 110 6 0
-42 -25 -105 -57z m4527 12 c73 -18 166 -47 205 -64 l73 -30 33 -93 c17 -52
32 -96 32 -100 0 -3 -30 16 -67 44 -93 70 -225 150 -368 225 -137 73 -129 74
92 18z m690 -153 c13 -62 27 -121 29 -130 3 -9 -3 -5 -13 9 -10 14 -36 44 -57
68 -37 41 -39 44 -28 80 6 20 16 57 23 82 9 31 14 39 16 25 3 -11 16 -71 30
-134z m-5962 -41 c-16 -19 -40 -48 -53 -65 -23 -29 -23 -29 -18 -5 3 14 15 70
27 125 29 139 28 139 53 55 l22 -75 -31 -35z m2650 139 c211 -50 470 -44 678
16 36 11 47 11 47 2 0 -7 -92 -658 -205 -1447 -113 -789 -205 -1439 -206
-1445 0 -6 -2 -7 -5 0 -5 13 -424 2867 -424 2890 0 12 5 15 18 10 9 -3 53 -15
97 -26z m1315 -291 l418 -212 32 -76 c75 -172 170 -445 158 -454 -2 -2 -27 0
-56 3 l-53 6 -22 65 c-66 195 -272 379 -557 497 -91 38 -278 96 -347 108 -24
4 -43 10 -43 13 0 7 25 170 35 230 3 17 9 32 12 32 3 0 194 -95 423 -212z
m-1558 86 c25 -164 34 -146 -84 -173 -268 -60 -528 -193 -682 -347 -79 -80
-128 -154 -161 -247 l-23 -62 -55 -3 -56 -3 20 72 c26 93 111 316 152 398 l32
65 410 208 c226 114 415 206 420 205 6 -2 18 -53 27 -113z m-1724 24 c-68 -96
-176 -276 -268 -448 -148 -278 -233 -386 -347 -442 -55 -27 -80 -33 -154 -36
-48 -3 -100 -1 -114 2 -27 7 -26 7 33 70 84 90 102 116 172 246 148 273 300
425 600 602 63 37 117 68 118 68 2 0 -16 -28 -40 -62z m4741 -76 c134 -88 296
-240 369 -345 27 -39 73 -115 102 -166 l52 -95 -53 -103 c-29 -57 -56 -103
-60 -103 -16 0 -90 62 -131 111 -60 71 -99 134 -193 314 -95 182 -159 291
-239 410 -34 49 -65 95 -69 103 -12 19 89 -38 222 -126z m506 -86 c57 -80 90
-154 125 -272 l27 -93 -22 -21 -22 -21 -64 111 c-34 61 -88 138 -118 171 l-54
61 33 68 c18 38 37 67 42 64 4 -3 28 -33 53 -68z m-5848 5 l33 -59 -43 -49
c-70 -79 -93 -115 -178 -270 -72 -131 -116 -199 -125 -190 -9 8 119 374 156
448 42 83 105 179 118 179 4 0 22 -27 39 -59z m6902 24 c79 -13 145 -26 148
-28 2 -2 -2 -48 -8 -101 -11 -82 -15 -96 -28 -90 -50 22 -183 55 -242 60 -56
6 -69 10 -69 24 0 39 33 160 44 160 6 0 76 -11 155 -25z m-1848 -370 c75 -112
163 -290 186 -375 10 -37 17 -101 17 -150 0 -107 -34 -191 -101 -250 -37 -32
-115 -70 -144 -70 -4 0 8 35 27 79 52 119 87 262 87 356 1 125 -24 205 -132
419 -53 105 -98 196 -100 201 -7 20 101 -123 160 -210z m-4287 8 c-105 -210
-134 -301 -134 -423 0 -94 34 -235 84 -351 20 -45 34 -84 32 -86 -2 -2 -29 6
-61 18 -75 28 -136 90 -165 167 -19 49 -21 71 -17 162 5 115 20 169 86 305 52
106 246 395 266 395 2 0 -39 -84 -91 -187z m2566 -793 l-69 -974 68 -136 c155
-306 226 -578 238 -911 12 -337 -39 -644 -177 -1064 l-60 -180 -136 -173 c-75
-95 -160 -199 -190 -230 l-53 -57 -1 73 c0 72 1 74 62 175 320 529 414 1086
278 1652 -37 157 -89 309 -157 464 -30 70 -57 135 -59 146 -4 16 292 2075 312
2168 3 16 8 27 10 25 2 -2 -28 -443 -66 -978z m260 935 c347 -100 588 -276
645 -472 5 -19 1 -23 -22 -28 -15 -3 -82 -19 -148 -35 -158 -38 -195 -43 -249
-35 -89 14 -180 103 -261 257 -34 64 -50 102 -116 281 l-29 79 32 -7 c18 -4
85 -22 148 -40z m-1255 18 c-4 -10 -27 -72 -52 -138 -86 -232 -189 -392 -279
-435 -67 -33 -154 -29 -340 18 -169 42 -163 36 -119 122 92 182 333 332 680
425 111 29 119 30 110 8z m191 -1076 l160 -1092 -48 -108 c-105 -239 -177
-472 -214 -702 -25 -154 -25 -469 0 -619 47 -288 158 -580 322 -849 53 -86 54
-90 54 -164 l0 -76 -57 63 c-32 35 -118 139 -190 233 l-133 169 -59 183 c-71
216 -101 332 -135 515 -96 524 -36 980 190 1438 l76 154 -66 936 c-36 515 -68
954 -70 975 -2 20 -1 37 2 37 4 0 79 -492 168 -1093z m4303 1028 c256 -54 472
-217 586 -445 36 -72 72 -177 63 -185 -10 -10 -1458 338 -1458 350 0 15 72 83
140 133 100 73 246 134 370 155 61 10 234 6 299 -8z m-1893 -300 c66 -143 69
-307 10 -450 l-17 -39 -29 62 c-38 80 -108 147 -198 191 l-70 34 -12 60 c-6
34 -36 131 -67 216 -30 86 -57 165 -60 175 -5 14 46 -8 207 -90 l213 -109 23
-50z m-3718 123 c-27 -73 -61 -179 -76 -235 -24 -95 -28 -103 -56 -114 -54
-21 -163 -98 -190 -134 -15 -19 -37 -57 -50 -85 -23 -48 -23 -49 -34 -25 -18
38 -40 134 -47 200 -8 73 12 177 49 255 l26 56 208 107 c114 58 210 107 213
107 3 0 -16 -60 -43 -132z m-1700 -275 c23 -34 42 -66 42 -72 0 -5 -17 -23
-37 -40 l-37 -30 25 -9 c100 -38 190 -55 295 -56 l112 -1 -5 -30 c-21 -140
-60 -410 -58 -412 1 -2 79 28 173 66 l172 69 49 -44 c89 -80 138 -181 97 -197
-8 -3 -63 -9 -123 -12 -167 -11 -546 12 -863 50 -157 19 -288 35 -291 35 -3 0
0 37 6 83 7 50 61 244 140 499 l129 418 66 -128 c36 -70 84 -155 108 -189z
m-1148 -353 c17 -63 45 -164 61 -223 23 -83 28 -114 21 -135 -9 -25 -16 -14
-99 153 -69 141 -95 204 -116 291 -30 122 -62 322 -71 454 l-6 85 90 -255 c49
-140 103 -307 120 -370z m8094 335 c264 -63 604 -144 755 -180 150 -36 275
-65 277 -65 2 0 4 -47 4 -106 0 -130 -24 -247 -48 -240 -10 3 -54 14 -99 26
-45 11 -104 33 -130 50 -81 49 -165 71 -293 77 -151 6 -233 24 -306 68 -32 20
-81 42 -108 50 -69 21 -221 38 -264 30 -25 -5 -88 7 -228 41 l-193 48 6 31
c17 92 108 285 134 285 6 0 228 -52 493 -115z m-4185 -315 c0 -33 -8 -42 -112
-131 -189 -161 -782 -704 -963 -881 -195 -191 -237 -218 -340 -218 -34 0 -81
7 -105 15 -49 18 -143 86 -159 115 -10 18 -8 19 15 10 46 -17 159 -12 219 11
94 35 174 97 363 281 101 98 193 180 205 183 13 3 44 9 70 15 129 27 264 115
429 280 128 126 244 272 321 403 l43 72 6 -60 c4 -33 7 -76 8 -95z m1260 77
c149 -243 374 -481 566 -596 73 -44 177 -81 226 -81 24 0 60 -30 211 -178 201
-195 253 -237 352 -283 71 -33 140 -41 226 -26 l45 8 -40 -41 c-60 -62 -155
-105 -230 -105 -106 1 -152 31 -354 228 -190 186 -779 725 -960 878 -101 86
-110 96 -106 123 3 16 5 55 5 87 0 33 3 59 8 59 4 0 27 -33 51 -73z m2501 -87
c143 -34 209 -55 218 -67 40 -53 128 -205 145 -248 39 -102 21 -216 -37 -231
-33 -8 -73 13 -201 107 -117 87 -233 149 -276 149 -29 0 -38 21 -59 139 -12
63 -13 201 -2 201 4 0 99 -22 212 -50z m-5542 -192 c76 -71 222 -138 303 -138
24 0 28 -7 57 -104 34 -111 39 -160 21 -200 -23 -50 -45 -51 -315 -7 -417 68
-441 67 -628 -22 l-110 -52 -185 0 c-114 0 -198 4 -217 11 -16 7 -84 51 -150
99 -141 103 -186 127 -236 129 -46 1 -90 -38 -155 -137 -50 -77 -89 -109 -104
-86 -13 21 -11 85 5 122 7 18 29 46 47 62 40 33 159 90 209 100 21 4 131 -8
275 -29 300 -43 514 -59 815 -60 257 0 305 7 339 51 46 57 6 174 -95 278 l-55
57 38 33 38 32 26 -46 c15 -25 49 -67 77 -93z m4915 81 c4 -3 -16 -31 -45 -62
-30 -30 -68 -83 -86 -118 -41 -79 -42 -127 -4 -169 25 -28 35 -32 117 -40 106
-11 223 -13 326 -4 l74 7 20 41 c24 50 61 71 100 56 14 -5 90 -52 168 -104
225 -150 286 -171 358 -122 42 29 65 72 81 151 21 105 -14 226 -101 355 l-31
45 25 3 c14 2 50 -4 79 -12 41 -12 62 -25 84 -54 40 -51 89 -151 102 -208 13
-57 0 -167 -35 -302 -14 -52 -25 -96 -25 -98 0 -9 93 -3 175 11 154 27 295 97
344 170 34 51 38 111 11 166 -24 48 -65 104 -114 158 l-31 33 35 -7 c82 -17
127 -45 169 -105 60 -85 91 -157 91 -211 0 -36 -8 -58 -38 -105 -83 -129 -224
-223 -417 -279 -156 -46 -225 -31 -783 169 -443 159 -446 160 -551 152 -47 -3
-185 -22 -306 -41 -121 -20 -237 -38 -257 -41 -33 -5 -42 -2 -68 24 -40 40
-39 77 2 214 30 99 35 108 58 108 125 1 321 121 381 234 l24 45 30 -27 c16
-15 34 -30 38 -33z m1397 -73 c60 -14 70 -20 125 -80 63 -68 120 -154 130
-197 9 -37 -32 -82 -108 -118 -64 -29 -194 -68 -202 -59 -3 2 2 38 11 79 10
47 14 106 12 164 -3 76 -9 101 -36 159 -37 80 -37 79 -14 72 9 -3 46 -12 82
-20z m-1034 -113 c11 -37 10 -42 -23 -86 l-35 -47 -91 1 c-126 0 -227 13 -237
28 -19 31 29 111 110 184 l50 45 108 -43 c104 -42 107 -44 118 -82z m-1996
-167 c96 -88 254 -227 350 -310 201 -172 335 -306 390 -388 78 -117 140 -350
140 -525 0 -171 -38 -306 -144 -518 -65 -129 -71 -137 -74 -105 -42 515 -133
870 -313 1233 -162 327 -402 624 -624 773 -49 33 -50 34 -47 79 l4 45 71 -62
c39 -35 150 -135 247 -222z m-1481 208 c1 -15 -13 -30 -41 -49 -77 -50 -214
-175 -294 -267 -377 -432 -591 -992 -650 -1702 l-6 -79 -40 74 c-63 118 -124
267 -149 364 -35 136 -34 321 5 470 30 118 89 257 132 308 61 75 209 218 339
330 77 66 226 197 330 292 369 334 359 326 367 302 3 -12 6 -32 7 -43z m5104
-69 c20 -4 37 -11 37 -16 0 -13 -43 -99 -49 -99 -4 0 -21 30 -39 66 -31 65
-32 66 -10 61 13 -3 40 -9 61 -12z m-3866 -177 c450 -400 739 -1101 770 -1870
6 -148 5 -159 -17 -215 -56 -141 -170 -341 -240 -423 l-22 -25 7 30 c55 246
77 430 82 707 6 281 -4 410 -47 629 -76 379 -233 702 -446 914 -44 44 -106 98
-138 120 l-58 40 6 44 c3 24 6 61 6 82 0 22 3 39 8 39 4 0 44 -33 89 -72z
m-1223 10 c12 -105 10 -115 -32 -142 -105 -66 -226 -193 -324 -341 -150 -226
-250 -509 -305 -865 -22 -146 -25 -597 -5 -765 13 -100 54 -344 69 -405 6 -23
5 -24 -11 -11 -48 40 -186 282 -246 434 -21 55 -22 66 -16 200 24 476 122 874
307 1246 107 216 216 377 355 522 61 65 186 179 195 179 3 0 9 -24 13 -52z
m-3150 -201 c66 -51 76 -62 60 -67 -23 -9 -46 -2 -146 40 -43 17 -78 36 -78
42 0 5 9 23 21 39 25 35 27 34 143 -54z m4399 -186 c202 -215 341 -542 404
-951 22 -145 25 -579 5 -745 -17 -134 -56 -352 -83 -460 -43 -171 -29 -150
-132 -199 -81 -39 -219 -86 -254 -86 -8 0 -6 17 8 58 18 51 26 61 80 97 154
101 260 279 305 511 23 118 23 388 0 534 -61 386 -185 760 -397 1198 -43 90
-79 165 -79 168 0 12 80 -58 143 -125z m-1233 104 c0 -2 -31 -67 -69 -143
-190 -379 -328 -781 -392 -1137 -31 -172 -37 -448 -14 -587 40 -241 146 -422
315 -538 48 -32 58 -45 72 -91 10 -29 16 -54 14 -56 -10 -10 -176 45 -256 85
-110 54 -100 38 -148 252 -175 781 -87 1520 236 1980 69 98 242 267 242 235z
m-2587 -52 c-32 -25 -84 -71 -115 -102 l-58 -55 0 60 c0 55 -3 64 -36 102
l-36 42 152 0 152 0 -59 -47z m-817 28 c15 -16 186 -87 236 -100 58 -14 126
-1 180 34 48 32 142 36 157 7 15 -27 22 -86 13 -100 -14 -21 -223 -44 -417
-45 -176 -2 -181 -1 -238 25 -31 15 -60 34 -63 43 -10 26 27 95 65 121 39 26
52 29 67 15z m4539 -306 c48 -85 126 -286 174 -446 163 -542 184 -1036 54
-1292 -30 -61 -83 -140 -89 -134 -2 2 3 34 11 71 47 202 66 530 46 771 -26
296 -91 594 -196 890 -31 88 -59 176 -62 195 -5 32 -4 33 11 21 9 -8 32 -42
51 -76z m-1149 -63 c-68 -178 -133 -408 -175 -617 -75 -381 -76 -821 -2 -1130
l19 -80 -33 38 c-145 167 -188 533 -114 967 57 334 194 752 297 909 33 51 37
54 40 31 2 -14 -13 -67 -32 -118z m-2746 59 c0 -11 -12 -29 -26 -40 -61 -48
-327 -109 -514 -118 -109 -5 -117 -4 -144 17 -25 21 -28 28 -23 67 2 24 7 46
10 49 3 3 31 1 64 -5 34 -7 108 -9 178 -5 115 5 415 41 424 50 12 11 31 2 31
-15z m1074 -175 c112 -55 227 -70 334 -42 42 10 52 11 48 1 -90 -235 -87 -535
7 -785 26 -70 97 -212 148 -299 l32 -54 -28 7 c-105 26 -224 122 -277 221 -15
28 -39 91 -54 140 -26 84 -28 103 -30 294 l-2 204 -78 41 c-94 49 -190 136
-224 203 -17 34 -26 69 -28 121 l-4 73 49 -48 c28 -26 76 -61 107 -77z m4621
41 c-18 -129 -121 -242 -298 -328 -36 -18 -46 -27 -42 -41 12 -37 6 -324 -8
-398 -37 -185 -117 -317 -235 -387 -44 -26 -142 -66 -142 -58 0 2 18 34 40 70
98 160 166 328 196 482 32 165 17 393 -35 545 l-19 55 46 -13 c141 -43 344 10
448 117 32 33 40 37 47 23 5 -8 6 -39 2 -67z m-5781 -88 c-30 -33 -103 -66
-187 -83 -89 -19 -127 -19 -182 -2 l-40 13 55 7 c76 10 272 54 317 71 53 19
59 18 37 -6z m193 -181 c50 -51 97 -106 105 -123 25 -48 40 -140 40 -243 1
-88 -1 -96 -23 -113 -35 -27 -59 -23 -151 24 -123 63 -185 113 -213 172 -28
57 -64 189 -67 247 l-3 40 60 22 c33 12 78 31 100 43 22 11 45 21 51 22 6 0
51 -41 101 -91z m3398 -172 c46 -128 90 -293 116 -441 28 -158 31 -451 5 -600
-36 -214 -106 -429 -199 -608 l-42 -82 -3 650 -2 650 35 240 c38 258 45 299
51 293 2 -2 19 -48 39 -102z m-312 -168 l38 -263 -1 -655 -1 -655 -46 90
c-145 285 -213 566 -213 882 0 181 10 280 46 443 26 119 121 420 133 420 3 0
23 -118 44 -262z"/>
<path d="M4950 9724 c-50 -43 -79 -77 -88 -101 -7 -20 -11 -37 -9 -39 9 -9
175 158 179 181 3 14 2 25 -1 24 -3 0 -40 -29 -81 -65z"/>
</g>
</svg>
